<svg xmlns="http://www.w3.org/2000/svg" viewBox="0 0 841.9 595.3">
<g fill="#bb2649">
<path d="M 224 96 C 135.6 96 64 167.6 64 256 s 71.6 160 160 160 c 77.4 0 142 -55 156.8 -128 H 256 c -17.7 0 -32 -14.3 -32 -32 s 14.3 -32 32 -32 H 400 c 25.8 0 49.6 21.4 47.2 50.6 C 437.8 389.6 341.4 480 224 480 C 100.3 480 0 379.7 0 256 S 100.3 32 224 32 c 57.4 0 109.7 21.6 149.3 57 c 13.2 11.8 14.3 32 2.5 45.2 s -32 14.3 -45.2 2.5 C 302.3 111.4 265 96 224 96 Z"/>
<path fill="#d3cd16" viewBox="0 0 841.9 595.3" d="M 224 96 C 135.6 96 64 167.6 64 256 s 71.6 160 160 160 c 77.4 0 142 -55 156.8 -128 H 256 c -17.7 0 -32 -14.3 -32 -32 s 14.3 -32 32 -32 H 400 c 25.8 0 49.6 21.4 47.2 50.6 C 437.8 389.6 341.4 480 224 480 C 100.3 480 0 379.7 0 256 S 100.3 32 224 32 c 57.4 0 109.7 21.6 149.3 57 c 13.2 11.8 14.3 32 2.5 45.2 s -32 14.3 -45.2 2.5 C 302.3 111.4 265 96 224 96 Z"/>
</svg>